<svg width="447" height="162" viewBox="0 0 447 162" fill="none" xmlns="http://www.w3.org/2000/svg">
<g clip-path="url(#clip0_192_2)">
<path d="M230.778 53.6581L252.044 52.3166C252.529 55.7097 253.419 58.2348 254.874 60.0497C257.219 62.8904 260.454 64.3108 264.739 64.3108C267.893 64.3108 270.399 63.6006 272.098 62.1013C273.715 60.9177 274.685 59.0239 274.685 57.0512C274.685 55.1574 273.796 53.3424 272.259 52.1588C270.642 50.7385 266.842 49.3181 260.858 48.0556C251.074 45.925 244.039 43.0843 239.915 39.4545C235.791 36.0614 233.446 31.0901 233.608 25.8032C233.608 22.1734 234.74 18.5436 236.842 15.5451C239.268 12.152 242.583 9.46909 246.545 7.96982C250.831 6.15492 256.815 5.20801 264.335 5.20801C273.553 5.20801 280.588 6.8651 285.44 10.2582C290.291 13.5724 293.202 18.9382 294.092 26.2767L273.068 27.4603C272.502 24.304 271.37 22.0156 269.51 20.5163C267.65 19.0171 265.224 18.3069 262.071 18.3069C259.483 18.3069 257.543 18.8593 256.249 19.8851C255.036 20.832 254.227 22.2523 254.308 23.8305C254.308 25.0141 254.955 26.1189 255.925 26.8291C256.977 27.776 259.483 28.644 263.445 29.433C273.23 31.4847 280.184 33.5363 284.469 35.6669C288.755 37.7974 291.828 40.4014 293.687 43.4788C295.628 46.6352 296.598 50.265 296.518 53.9737C296.518 58.3926 295.224 62.8115 292.636 66.5202C289.968 70.3868 286.248 73.3853 281.882 75.2002C277.273 77.1729 271.451 78.1988 264.497 78.1988C252.206 78.1988 243.715 75.9104 238.944 71.2548C234.174 66.5992 231.344 60.7599 230.778 53.6581ZM5.09425 77.0151V6.47055H42.3712C49.2444 6.47055 54.5812 7.02291 58.22 8.20655C61.7779 9.31127 64.9314 11.5996 67.0338 14.6771C69.3788 18.0702 70.5109 22.0156 70.43 26.1189C70.6726 33.0629 67.0338 39.6912 60.8075 43.1632C58.3817 44.5047 55.7133 45.4516 52.964 45.925C54.9855 46.4774 57.0071 47.4243 58.786 48.529C60.1606 49.6337 61.2927 50.8963 62.3439 52.2377C63.5568 53.5792 64.608 55.0784 65.4975 56.6566L76.3329 77.094H50.9425L38.975 55.3941C37.4387 52.6323 36.1449 50.8174 34.932 49.9494C33.3148 48.8446 31.3741 48.2923 29.4334 48.2923H27.4928V76.9362H5.09425V77.0151ZM27.4928 35.0356H36.9535C38.975 34.8778 40.9157 34.5621 42.8564 34.0887C44.3119 33.8519 45.6056 33.0629 46.4951 31.8792C48.6784 29.0385 48.3549 25.0141 45.6865 22.568C44.231 21.3843 41.4009 20.7531 37.3578 20.7531H27.4928V35.0356ZM0 137.459L21.2665 136.118C21.7516 139.511 22.6411 142.036 24.0966 143.851C26.3607 146.692 29.676 148.191 33.9617 148.191C37.1152 148.191 39.6219 147.481 41.32 145.982C42.9372 144.719 43.9076 142.904 43.9076 140.931C43.9076 139.038 43.0181 137.223 41.4817 136.039C39.8645 134.619 36.064 133.198 29.9995 131.936C20.2153 129.805 13.1804 126.964 9.05644 123.335C4.93253 119.942 2.58755 114.97 2.74928 109.683C2.74928 106.054 3.88133 102.424 5.98372 99.4253C8.40955 96.0322 11.7249 93.3493 15.687 91.85C19.9727 90.0351 25.9564 89.0882 33.4765 89.0882C42.6947 89.0882 49.7296 90.7453 54.5812 94.1384C59.4329 97.5314 62.263 102.818 63.1525 110.157L42.1286 111.341C41.5626 108.184 40.4305 105.896 38.5707 104.397C36.7918 102.897 34.2851 102.187 31.1315 102.266C28.544 102.266 26.6033 102.818 25.3095 103.923C24.0157 104.87 23.288 106.29 23.3689 107.869C23.3689 109.052 24.0157 110.157 24.9861 110.867C26.0373 111.814 28.544 112.682 32.5062 113.471C42.2903 115.523 49.2444 117.574 53.53 119.705C57.8157 121.835 60.8884 124.439 62.7482 127.517C64.6889 130.673 65.6592 134.303 65.6592 137.933C65.6592 142.352 64.2846 146.692 61.7779 150.4C59.1095 154.267 55.3898 157.265 51.0233 159.08C46.4143 161.053 40.5923 162.079 33.6382 162.079C21.3473 162.079 12.8569 159.791 8.08611 155.135C3.3153 150.4 0.646889 144.561 0 137.459H0Z" fill="white"/>
<path d="M107.545 131.936L127.114 137.696C126.063 142.509 123.879 147.086 120.887 151.111C118.138 154.661 114.499 157.423 110.376 159.238C106.171 161.053 100.834 162 94.365 162C86.5215 162 80.0526 160.895 75.1201 158.686C70.1067 156.476 65.8211 152.531 62.1823 146.928C58.5436 141.326 56.7646 134.145 56.7646 125.386C56.7646 113.708 59.9182 104.712 66.3063 98.4783C72.6943 92.2445 81.6699 89.0881 93.3139 89.0881C102.451 89.0881 109.567 90.903 114.823 94.4539C119.998 98.0837 123.879 103.607 126.467 111.025L106.737 115.286C106.252 113.629 105.524 111.972 104.554 110.551C103.341 108.894 101.804 107.632 99.9445 106.685C98.0847 105.738 95.9823 105.343 93.8799 105.343C88.7856 105.343 84.9043 107.316 82.2359 111.34C80.2144 114.26 79.1632 118.916 79.1632 125.228C79.1632 133.04 80.3761 138.406 82.8019 141.326C85.2277 144.245 88.6239 145.666 93.0713 145.666C97.3569 145.666 100.591 144.482 102.775 142.194C104.958 139.748 106.575 136.355 107.545 131.936ZM153.232 90.2718H175.55V114.97H199.97V90.2718H222.449V160.816H199.97V132.251H175.55V160.816H153.232V90.2718V90.2718Z" fill="white"/>
<path d="M219.376 125.544C219.376 114.023 222.691 105.028 229.241 98.6362C235.791 92.2445 245.009 89.0093 256.734 89.0093C268.782 89.0093 278 92.1656 284.55 98.4783C291.1 104.791 294.334 113.629 294.334 124.992C294.334 133.277 292.879 139.984 290.049 145.271C287.299 150.479 283.014 154.74 277.758 157.581C272.34 160.501 265.629 162 257.623 162C249.456 162 242.745 160.737 237.408 158.212C231.909 155.529 227.381 151.347 224.389 146.218C221.074 140.695 219.376 133.83 219.376 125.544ZM241.694 125.623C241.694 132.725 243.068 137.854 245.737 141.01C248.405 144.088 252.125 145.666 256.815 145.666C261.585 145.666 265.305 144.167 267.973 141.089C270.642 138.012 271.936 132.567 271.936 124.676C271.936 118.048 270.561 113.155 267.812 110.157C265.063 107.079 261.343 105.58 256.653 105.58C252.529 105.422 248.567 107.158 245.818 110.236C243.068 113.313 241.694 118.442 241.694 125.623V125.623ZM317.218 125.544C317.218 114.023 320.533 105.028 327.083 98.6362C333.633 92.2445 342.851 89.0093 354.576 89.0093C366.624 89.0093 375.923 92.1656 382.392 98.4783C388.861 104.791 392.176 113.629 392.176 124.992C392.176 133.277 390.721 139.984 387.89 145.271C385.141 150.479 380.856 154.74 375.6 157.581C370.182 160.501 363.47 162 355.465 162C347.298 162 340.587 160.737 335.25 158.212C329.751 155.529 325.223 151.347 322.231 146.218C318.916 140.695 317.218 133.83 317.218 125.544V125.544ZM339.536 125.623C339.536 132.725 340.91 137.854 343.579 141.01C346.247 144.088 349.967 145.666 354.657 145.666C359.427 145.666 363.147 144.167 365.815 141.089C368.484 138.012 369.778 132.567 369.778 124.676C369.778 118.048 368.403 113.155 365.654 110.157C362.904 107.079 359.185 105.58 354.495 105.58C350.371 105.422 346.328 107.158 343.659 110.236C340.91 113.313 339.536 118.442 339.536 125.623V125.623Z" fill="white"/>
<path d="M389.831 90.2717H412.149V143.456H447V160.816H389.75V90.2717H389.831Z" fill="white"/>
<path d="M317.299 48.3712L325.385 42.8476L335.331 56.6566C337.029 58.8661 338.323 61.2333 339.293 63.8373C339.859 65.8101 339.697 67.9406 338.889 69.8344C337.838 72.2017 336.139 74.1744 333.875 75.5948C331.207 77.4097 328.943 78.4355 327.002 78.7511C325.142 79.0668 323.202 78.7511 321.423 77.962C319.482 77.0151 317.784 75.6737 316.49 73.9377L323.444 67.625C324.01 68.493 324.738 69.2821 325.547 69.9133C326.113 70.3079 326.76 70.5446 327.487 70.5446C328.053 70.5446 328.619 70.3079 329.024 69.9922C329.832 69.5188 330.398 68.5719 330.317 67.625C330.075 66.2835 329.509 64.9421 328.619 63.9163L317.299 48.3712V48.3712ZM341.557 57.1301L348.916 51.4486C349.724 52.3955 350.775 53.1057 351.907 53.5003C353.525 53.9737 355.223 53.6581 356.597 52.6323C357.568 52.001 358.376 51.133 358.7 50.0283C359.185 48.6079 358.376 47.0297 356.921 46.5563C356.678 46.4774 356.436 46.3985 356.193 46.3985C355.223 46.3196 353.525 46.7141 351.018 47.7399C346.894 49.397 343.66 50.0283 341.234 49.7916C338.889 49.5548 336.705 48.3712 335.412 46.3985C334.441 45.057 333.956 43.4788 333.875 41.9007C333.875 40.0858 334.361 38.2709 335.412 36.7716C336.948 34.641 338.808 32.8261 341.072 31.4058C344.468 29.1174 347.46 28.0127 350.048 28.0127C352.635 28.0127 355.061 29.1963 357.325 31.6425L350.048 37.245C348.592 35.4301 345.843 35.0356 343.983 36.4559L343.74 36.6927C342.932 37.1661 342.366 37.8763 342.042 38.7443C341.8 39.3756 341.961 40.0858 342.366 40.6381C342.689 41.0327 343.174 41.3483 343.74 41.3483C344.387 41.4272 345.519 41.1116 347.137 40.4014C351.18 38.7443 354.252 37.7974 356.355 37.4818C358.134 37.1661 359.993 37.3239 361.692 38.0341C363.228 38.6654 364.522 39.7701 365.411 41.1116C366.543 42.6898 367.19 44.5836 367.271 46.5563C367.352 48.6079 366.786 50.5806 365.654 52.3166C364.198 54.4472 362.338 56.2621 360.155 57.6824C355.708 60.681 352.069 61.9435 349.158 61.4701C346.005 60.9966 343.417 59.4184 341.557 57.1301V57.1301Z" fill="white"/>
<path d="M378.001 24.1547C390.143 40.5871 384.05 66.9007 362.599 82.7503C341.148 98.6 314.205 96.6952 302.064 80.2628C289.922 63.8305 296.015 37.5168 317.466 21.6672C338.917 5.8175 365.86 7.72231 378.001 24.1547Z" stroke="white" stroke-width="6"/>
</g>
<defs>
<clipPath id="clip0_192_2">
<rect width="447" height="162" fill="white"/>
</clipPath>
</defs>
</svg>
